<?xml version="1.0" encoding="UTF-8" standalone="no"?>
<svg width="17px" height="20px" viewBox="0 0 17 20" version="1.1" xmlns="http://www.w3.org/2000/svg" xmlns:xlink="http://www.w3.org/1999/xlink" xmlns:sketch="http://www.bohemiancoding.com/sketch/ns">
    <!-- Generator: sketchtool 3.4 (375) - http://www.bohemiancoding.com/sketch -->
    <title>ic_notifications_black_24px</title>
    <desc>Created with sketchtool.</desc>
    <defs></defs>
    <g id="Page-1" stroke="none" stroke-width="1" fill="none" fill-rule="evenodd" sketch:type="MSPage">
        <g id="Tasklist:-Company-(1200px)" sketch:type="MSArtboardGroup" transform="translate(-932.000000, -21.000000)">
            <g id="header" sketch:type="MSLayerGroup">
                <g id="ic_notifications_black_24px" transform="translate(929.000000, 19.000000)" sketch:type="MSShapeGroup">
                    <g id="Group">
                        <path d="M11.5,22 C12.6,22 13.5,21.1 13.5,20 L9.5,20 C9.5,21.1 10.4,22 11.5,22 L11.5,22 Z M18,16 L18,10.5 C18,7.43 15.87,4.86 13,4.18 L13,3.5 C13,2.67 12.33,2 11.5,2 C10.67,2 10,2.67 10,3.5 L10,4.18 C7.13,4.86 5,7.43 5,10.5 L5,16 L3,18 L3,19 L20,19 L20,18 L18,16 L18,16 Z" id="Shape" fill="#666666"></path>
                        <path d="M0,0 L24,0 L24,24 L0,24 L0,0 Z" id="Shape"></path>
                    </g>
                </g>
            </g>
        </g>
    </g>
</svg>